<svg id="Layer_1" data-name="Layer 1" xmlns="http://www.w3.org/2000/svg" viewBox="0 0 1173.63 1477.15">
  <path d="M1322.7,716.8c-10-10.8-21-21.2-33-29.6-25.6-18-52.1-34.7-78.4-51.7-38.6-25-77.3-49.7-116-74.6q-51.3-33-102.5-66c-31.9-20.6-63.7-41.3-95.7-61.8-31.2-20-62.7-39.8-94-59.8Q750.75,339.85,698.5,306c-30.8-19.9-61.3-40.1-92.1-60q-54-34.8-108.1-69.4c-29.2-18.7-58.6-37.1-87.8-55.7-43.1-27.5-86-55.3-129.2-82.7C263.7,27,245.5,16.7,224.6,12.9c-25.5-4.7-42.8,4.8-51.3,29.1-3.6,10.1-6.4,20.9-7.2,31.5q-2.7,34.35-2.7,68.9-.3,304.5-.1,609,0,257.55-.2,514.9c0,47.9.5,95.7,1.2,143.5.3,18,2.6,35.9,9.9,52.7,8.6,19.7,24.9,29.1,45.9,25.7,9.4-1.5,18.7-4.8,27.6-8.4,26.1-10.6,49-27,72.6-42,32.2-20.4,64.1-41.3,96.2-61.9,29-18.6,58.2-37,87.2-55.6,34.2-21.9,68.3-44,102.5-66l119.4-76.8c9.1-5.9,18.3-11.6,27.4-17.5,21.4-13.9,42.7-27.9,64.1-41.7Q868,1085.45,918.9,1053c33.3-21.3,66.6-42.4,99.8-63.8,27.8-17.9,55.2-36.1,83-53.9,28.8-18.4,57.9-36.2,86.6-54.8,32.5-21,64.4-42.8,96.9-63.7a174,174,0,0,0,37.8-33.2C1341.1,762.5,1341.6,737.2,1322.7,716.8ZM543.9,1082a38.41,38.41,0,0,1-38.4,38.4H363a38.41,38.41,0,0,1-38.4-38.4V418.9A38.41,38.41,0,0,1,363,380.5v-.1H505.5a38.41,38.41,0,0,1,38.4,38.4ZM859.6,895.7a38.41,38.41,0,0,1-38.4,38.4H678.7a38.41,38.41,0,0,1-38.4-38.4V603a38.41,38.41,0,0,1,38.4-38.4H821.2A38.41,38.41,0,0,1,859.6,603Z" transform="translate(-163.1 -11.74)" fill="white"/>
</svg>
