<svg width="14" height="14" viewBox="0 0 14 14" fill="none" xmlns="http://www.w3.org/2000/svg">
<path d="M12.75 0.75H1.25C0.973437 0.75 0.75 0.973437 0.75 1.25V12.75C0.75 13.0266 0.973437 13.25 1.25 13.25H12.75C13.0266 13.25 13.25 13.0266 13.25 12.75V1.25C13.25 0.973437 13.0266 0.75 12.75 0.75ZM7.01719 7.09531L4.01719 9.61094C3.93594 9.67969 3.8125 9.62188 3.8125 9.51562V8.53594C3.8125 8.5 3.82969 8.46406 3.85781 8.44063L5.57344 7L3.85781 5.55937C3.84345 5.54803 3.83189 5.53353 3.82404 5.51701C3.81618 5.50048 3.81223 5.48236 3.8125 5.46406V4.48438C3.8125 4.37812 3.93594 4.32031 4.01719 4.38906L7.01719 6.90312C7.07812 6.95312 7.07812 7.04531 7.01719 7.09531V7.09531ZM10.1875 9.51562C10.1875 9.58438 10.1344 9.64062 10.0703 9.64062H7.17969C7.11563 9.64062 7.0625 9.58438 7.0625 9.51562V8.76562C7.0625 8.69687 7.11563 8.64062 7.17969 8.64062H10.0703C10.1344 8.64062 10.1875 8.69687 10.1875 8.76562V9.51562Z"/>
</svg>
