<?xml version="1.0" standalone="no"?>
<!DOCTYPE svg PUBLIC "-//W3C//DTD SVG 20010904//EN"
 "http://www.w3.org/TR/2001/REC-SVG-20010904/DTD/svg10.dtd">
<svg version="1.0" xmlns="http://www.w3.org/2000/svg"
 width="700.000000pt" height="700.000000pt" viewBox="0 0 700.000000 700.000000"
 preserveAspectRatio="xMidYMid meet">
<metadata>
Created by potrace 1.11, written by Peter Selinger 2001-2013
</metadata>
<g transform="translate(0.000000,700.000000) scale(0.100000,-0.100000)"
fill="#000000" stroke="none">
<path d="M3299 6996 c-2 -2 -40 -6 -84 -10 -301 -21 -621 -89 -895 -188 -131
-47 -302 -119 -332 -140 -14 -10 -31 -18 -36 -18 -16 0 -229 -121 -363 -206
-117 -74 -260 -182 -305 -231 -22 -24 -33 -26 -139 -22 -99 4 -297 -11 -339
-25 -121 -41 -213 -138 -247 -258 -8 -27 -13 -123 -14 -253 -3 -314 0 -286
-44 -341 -43 -54 -173 -315 -244 -489 -50 -123 -116 -319 -147 -440 -23 -89
-75 -353 -84 -430 -31 -253 -29 -665 4 -897 23 -157 38 -239 71 -378 30 -124
116 -397 143 -455 8 -16 24 -55 36 -85 38 -97 201 -414 231 -448 33 -37 31
-11 33 -357 2 -212 4 -235 25 -290 40 -107 112 -182 213 -222 66 -27 124 -32
393 -33 121 0 132 -2 155 -23 27 -25 188 -147 194 -147 17 0 218 -148 244
-179 22 -28 41 -41 58 -41 13 0 24 5 24 10 0 7 6 7 17 0 34 -18 259 -119 338
-150 161 -65 454 -154 576 -175 16 -3 60 -12 97 -19 37 -8 94 -18 127 -21 33
-4 69 -9 80 -11 126 -25 675 -24 814 1 15 2 56 8 151 20 137 18 488 104 606
149 119 45 186 71 249 98 633 274 1213 777 1577 1368 82 134 181 325 228 440
12 30 28 69 36 85 78 172 198 630 220 835 3 36 8 68 10 71 25 43 24 710 -1
834 -2 11 -7 40 -10 65 -3 25 -7 56 -10 70 -3 14 -7 39 -10 55 -27 155 -74
341 -131 511 -26 76 -50 144 -54 149 -4 6 -11 21 -15 35 -35 122 -231 494
-327 620 l-26 35 28 61 c43 90 44 108 10 141 -16 15 -84 59 -152 97 -163 92
-288 175 -288 190 0 13 -115 122 -245 232 -394 334 -918 598 -1430 719 -55 13
-116 27 -135 30 -19 3 -42 8 -50 10 -21 6 -95 16 -205 30 -33 3 -71 9 -85 11
-29 6 -536 14 -541 10z"/>
</g>
</svg>
